<svg xmlns="http://www.w3.org/2000/svg" xmlns:xlink="http://www.w3.org/1999/xlink" width="500" zoomAndPan="magnify" viewBox="0 0 375 374.999991" height="500" preserveAspectRatio="xMidYMid meet" version="1.0"><defs><g/></defs><g fill="#000000" fill-opacity="0.4"><g transform="translate(40.295987, 189.716824)"><g><path d="M 19.28125 0 L 17.796875 0 C 17.554688 0 17.4375 -0.109375 17.4375 -0.328125 L 17.453125 -2.265625 C 15.816406 -0.617188 13.632812 0.203125 10.90625 0.203125 C 8.175781 0.203125 5.898438 -0.742188 4.078125 -2.640625 C 2.253906 -4.546875 1.34375 -7.046875 1.34375 -10.140625 C 1.34375 -12.210938 1.800781 -14.03125 2.71875 -15.59375 C 3.644531 -17.15625 4.816406 -18.316406 6.234375 -19.078125 C 7.660156 -19.847656 9.207031 -20.234375 10.875 -20.234375 C 13.71875 -20.234375 15.765625 -19.347656 17.015625 -17.578125 L 16.984375 -19.71875 C 16.953125 -19.945312 17.066406 -20.0625 17.328125 -20.0625 L 18.890625 -20.0625 C 19.128906 -20.0625 19.25 -19.945312 19.25 -19.71875 L 19.25 -13.96875 C 19.25 -13.75 19.128906 -13.640625 18.890625 -13.640625 L 17.125 -13.640625 C 16.90625 -13.640625 16.796875 -13.75 16.796875 -13.96875 L 16.796875 -14.296875 C 16.796875 -15.117188 16.226562 -15.929688 15.09375 -16.734375 C 13.96875 -17.535156 12.53125 -17.9375 10.78125 -17.9375 C 9.03125 -17.9375 7.453125 -17.210938 6.046875 -15.765625 C 4.640625 -14.328125 3.9375 -12.398438 3.9375 -9.984375 C 3.9375 -7.578125 4.644531 -5.671875 6.0625 -4.265625 C 7.476562 -2.859375 9.0625 -2.15625 10.8125 -2.15625 C 12.5625 -2.15625 13.941406 -2.429688 14.953125 -2.984375 C 15.972656 -3.546875 16.734375 -4.207031 17.234375 -4.96875 L 17.234375 -7.15625 L 12.046875 -7.15625 C 11.816406 -7.15625 11.703125 -7.273438 11.703125 -7.515625 L 11.703125 -8.796875 C 11.703125 -9.023438 11.816406 -9.140625 12.046875 -9.140625 L 19.28125 -9.140625 C 19.5 -9.140625 19.609375 -9.023438 19.609375 -8.796875 L 19.609375 -0.328125 C 19.609375 -0.109375 19.5 0 19.28125 0 Z M 19.28125 0 "/></g></g></g><g fill="#000000" fill-opacity="0.4"><g transform="translate(64.323711, 189.716824)"><g><path d="M 21.453125 0 L 15.140625 0 C 14.921875 0 14.8125 -0.109375 14.8125 -0.328125 L 14.8125 -1.765625 C 14.8125 -1.984375 14.921875 -2.09375 15.140625 -2.09375 L 17.09375 -2.09375 L 15.28125 -6.921875 L 7.484375 -6.921875 L 5.671875 -2.09375 L 7.625 -2.09375 C 7.851562 -2.09375 7.96875 -1.984375 7.96875 -1.765625 L 7.96875 -0.328125 C 7.96875 -0.109375 7.851562 0 7.625 0 L 1.34375 0 C 1.113281 0 1 -0.109375 1 -0.328125 L 1 -1.765625 C 1 -1.984375 1.113281 -2.09375 1.34375 -2.09375 L 3.21875 -2.09375 L 9.21875 -17.96875 L 7.703125 -17.96875 C 7.460938 -17.96875 7.34375 -18.078125 7.34375 -18.296875 L 7.34375 -19.71875 C 7.34375 -19.945312 7.460938 -20.0625 7.703125 -20.0625 L 11.515625 -20.0625 C 11.960938 -20.0625 12.300781 -19.96875 12.53125 -19.78125 C 12.757812 -19.59375 12.957031 -19.285156 13.125 -18.859375 L 19.5625 -2.09375 L 21.453125 -2.09375 C 21.679688 -2.09375 21.796875 -1.984375 21.796875 -1.765625 L 21.796875 -0.328125 C 21.796875 -0.109375 21.679688 0 21.453125 0 Z M 14.53125 -8.859375 L 11.421875 -17.15625 L 11.34375 -17.15625 L 8.21875 -8.859375 Z M 14.53125 -8.859375 "/></g></g></g><g fill="#000000" fill-opacity="0.4"><g transform="translate(90.893751, 189.716824)"><g><path d="M 10.734375 0 L 1.703125 0 C 1.460938 0 1.34375 -0.109375 1.34375 -0.328125 L 1.34375 -1.765625 C 1.34375 -1.984375 1.460938 -2.09375 1.703125 -2.09375 L 3.828125 -2.09375 L 3.828125 -17.96875 L 1.703125 -17.96875 C 1.460938 -17.96875 1.34375 -18.078125 1.34375 -18.296875 L 1.34375 -19.71875 C 1.34375 -19.945312 1.460938 -20.0625 1.703125 -20.0625 L 10.703125 -20.0625 C 12.566406 -20.0625 14.015625 -19.566406 15.046875 -18.578125 C 16.078125 -17.585938 16.59375 -16.289062 16.59375 -14.6875 C 16.59375 -12.8125 15.765625 -11.40625 14.109375 -10.46875 C 16.492188 -9.78125 17.6875 -8.203125 17.6875 -5.734375 C 17.6875 -3.972656 17.101562 -2.578125 15.9375 -1.546875 C 14.769531 -0.515625 13.035156 0 10.734375 0 Z M 6.265625 -2.09375 L 10.53125 -2.09375 C 12 -2.09375 13.144531 -2.40625 13.96875 -3.03125 C 14.800781 -3.65625 15.21875 -4.617188 15.21875 -5.921875 C 15.21875 -8.253906 13.710938 -9.421875 10.703125 -9.421875 L 6.265625 -9.421875 Z M 6.265625 -11.265625 L 10.53125 -11.265625 C 11.5 -11.273438 12.34375 -11.550781 13.0625 -12.09375 C 13.78125 -12.632812 14.140625 -13.484375 14.140625 -14.640625 C 14.140625 -15.796875 13.757812 -16.640625 13 -17.171875 C 12.25 -17.703125 11.320312 -17.96875 10.21875 -17.96875 L 6.265625 -17.96875 Z M 6.265625 -11.265625 "/></g></g></g><g fill="#000000" fill-opacity="0.4"><g transform="translate(112.993785, 189.716824)"><g><path d="M 18.296875 0 L 15.875 0 C 15.195312 0 14.632812 -0.445312 14.1875 -1.34375 L 11.5625 -6.671875 C 11.34375 -7.140625 11.101562 -7.484375 10.84375 -7.703125 C 10.59375 -7.929688 10.25 -8.054688 9.8125 -8.078125 L 6.265625 -8.078125 L 6.265625 -2.09375 L 8.765625 -2.09375 C 8.992188 -2.09375 9.109375 -1.984375 9.109375 -1.765625 L 9.109375 -0.328125 C 9.109375 -0.109375 8.992188 0 8.765625 0 L 1.703125 0 C 1.460938 0 1.34375 -0.109375 1.34375 -0.328125 L 1.34375 -1.765625 C 1.34375 -1.984375 1.460938 -2.09375 1.703125 -2.09375 L 3.828125 -2.09375 L 3.828125 -17.96875 L 1.703125 -17.96875 C 1.460938 -17.96875 1.34375 -18.078125 1.34375 -18.296875 L 1.34375 -19.71875 C 1.34375 -19.945312 1.460938 -20.0625 1.703125 -20.0625 L 10.3125 -20.0625 C 12.300781 -20.0625 13.921875 -19.535156 15.171875 -18.484375 C 16.421875 -17.429688 17.046875 -15.945312 17.046875 -14.03125 C 17.046875 -11.101562 15.675781 -9.273438 12.9375 -8.546875 C 13.289062 -8.265625 13.726562 -7.640625 14.25 -6.671875 L 16.59375 -2.09375 L 18.296875 -2.09375 C 18.523438 -2.09375 18.640625 -1.984375 18.640625 -1.765625 L 18.640625 -0.328125 C 18.640625 -0.109375 18.523438 0 18.296875 0 Z M 6.265625 -10.0625 L 9.828125 -10.0625 C 12.992188 -10.0625 14.578125 -11.351562 14.578125 -13.9375 C 14.578125 -16.625 12.992188 -17.96875 9.828125 -17.96875 L 6.265625 -17.96875 Z M 6.265625 -10.0625 "/></g></g></g><g fill="#000000" fill-opacity="0.4"><g transform="translate(136.043689, 189.716824)"><g><path d="M 8.40625 0 L 1.703125 0 C 1.460938 0 1.34375 -0.109375 1.34375 -0.328125 L 1.34375 -1.765625 C 1.34375 -1.984375 1.460938 -2.09375 1.703125 -2.09375 L 3.828125 -2.09375 L 3.828125 -17.96875 L 1.703125 -17.96875 C 1.460938 -17.96875 1.34375 -18.078125 1.34375 -18.296875 L 1.34375 -19.71875 C 1.34375 -19.945312 1.460938 -20.0625 1.703125 -20.0625 L 8.40625 -20.0625 C 8.644531 -20.0625 8.765625 -19.945312 8.765625 -19.71875 L 8.765625 -18.296875 C 8.765625 -18.078125 8.644531 -17.96875 8.40625 -17.96875 L 6.265625 -17.96875 L 6.265625 -2.09375 L 8.40625 -2.09375 C 8.644531 -2.09375 8.765625 -1.984375 8.765625 -1.765625 L 8.765625 -0.328125 C 8.765625 -0.109375 8.644531 0 8.40625 0 Z M 8.40625 0 "/></g></g></g><g fill="#000000" fill-opacity="0.4"><g transform="translate(149.231648, 189.716824)"><g><path d="M 16.53125 0 L 1.703125 0 C 1.460938 0 1.34375 -0.109375 1.34375 -0.328125 L 1.34375 -1.765625 C 1.34375 -1.984375 1.460938 -2.09375 1.703125 -2.09375 L 3.828125 -2.09375 L 3.828125 -17.96875 L 1.703125 -17.96875 C 1.460938 -17.96875 1.34375 -18.078125 1.34375 -18.296875 L 1.34375 -19.71875 C 1.34375 -19.945312 1.460938 -20.0625 1.703125 -20.0625 L 16.53125 -20.0625 C 16.78125 -20.0625 16.90625 -19.945312 16.90625 -19.71875 L 16.90625 -15.21875 C 16.90625 -14.976562 16.78125 -14.859375 16.53125 -14.859375 L 15.03125 -14.859375 C 14.800781 -14.859375 14.6875 -14.976562 14.6875 -15.21875 L 14.6875 -17.96875 L 6.265625 -17.96875 L 6.265625 -11.03125 L 13.328125 -11.03125 C 13.566406 -11.03125 13.6875 -10.921875 13.6875 -10.703125 L 13.6875 -9.28125 C 13.6875 -9.050781 13.566406 -8.9375 13.328125 -8.9375 L 6.265625 -8.9375 L 6.265625 -2.09375 L 14.671875 -2.09375 L 14.671875 -4.828125 C 14.671875 -5.054688 14.789062 -5.171875 15.03125 -5.171875 L 16.53125 -5.171875 C 16.78125 -5.171875 16.90625 -5.054688 16.90625 -4.828125 L 16.90625 -0.328125 C 16.90625 -0.109375 16.78125 0 16.53125 0 Z M 16.53125 0 "/></g></g></g><g fill="#000000" fill-opacity="0.4"><g transform="translate(170.549437, 189.716824)"><g><path d="M 16.984375 0 L 1.703125 0 C 1.460938 0 1.34375 -0.109375 1.34375 -0.328125 L 1.34375 -1.765625 C 1.34375 -1.984375 1.460938 -2.09375 1.703125 -2.09375 L 3.828125 -2.09375 L 3.828125 -17.96875 L 1.703125 -17.96875 C 1.460938 -17.96875 1.34375 -18.078125 1.34375 -18.296875 L 1.34375 -19.71875 C 1.34375 -19.945312 1.460938 -20.0625 1.703125 -20.0625 L 8.375 -20.0625 C 8.625 -20.0625 8.75 -19.941406 8.75 -19.703125 L 8.75 -18.328125 C 8.75 -18.085938 8.625 -17.96875 8.375 -17.96875 L 6.265625 -17.96875 L 6.265625 -2.09375 L 15.140625 -2.09375 L 15.140625 -4.828125 C 15.140625 -5.054688 15.257812 -5.171875 15.5 -5.171875 L 17.015625 -5.171875 C 17.234375 -5.171875 17.34375 -5.054688 17.34375 -4.828125 L 17.34375 -0.359375 C 17.34375 -0.117188 17.222656 0 16.984375 0 Z M 16.984375 0 "/></g></g></g><g fill="#000000" fill-opacity="0.4"><g transform="translate(192.342168, 189.716824)"><g/></g></g><g fill="#000000" fill-opacity="0.4"><g transform="translate(204.16119, 189.716824)"><g><path d="M 24 0 L 17.546875 0 C 17.316406 0 17.203125 -0.109375 17.203125 -0.328125 L 17.203125 -1.765625 C 17.203125 -1.984375 17.316406 -2.09375 17.546875 -2.09375 L 19.421875 -2.09375 L 19.421875 -16.015625 L 19.390625 -16.015625 L 14.078125 -2.828125 C 13.859375 -2.265625 13.445312 -1.984375 12.84375 -1.984375 C 12.25 -1.984375 11.84375 -2.265625 11.625 -2.828125 L 6.3125 -16.015625 L 6.265625 -16.015625 L 6.265625 -2.09375 L 8.125 -2.09375 C 8.375 -2.09375 8.5 -1.984375 8.5 -1.765625 L 8.5 -0.328125 C 8.5 -0.109375 8.375 0 8.125 0 L 1.703125 0 C 1.460938 0 1.34375 -0.109375 1.34375 -0.328125 L 1.34375 -1.765625 C 1.34375 -1.984375 1.460938 -2.09375 1.703125 -2.09375 L 3.828125 -2.09375 L 3.828125 -17.96875 L 1.703125 -17.96875 C 1.460938 -17.96875 1.34375 -18.078125 1.34375 -18.296875 L 1.34375 -19.71875 C 1.34375 -19.945312 1.460938 -20.0625 1.703125 -20.0625 L 6 -20.0625 C 6.632812 -20.0625 7.070312 -19.742188 7.3125 -19.109375 L 11.484375 -9.046875 L 12.796875 -5.53125 L 12.90625 -5.53125 C 13.425781 -6.976562 13.851562 -8.132812 14.1875 -9 L 18.390625 -19.109375 C 18.628906 -19.742188 19.070312 -20.0625 19.71875 -20.0625 L 24 -20.0625 C 24.21875 -20.0625 24.328125 -19.945312 24.328125 -19.71875 L 24.328125 -18.296875 C 24.328125 -18.078125 24.21875 -17.96875 24 -17.96875 L 21.84375 -17.96875 L 21.84375 -2.09375 L 24 -2.09375 C 24.21875 -2.09375 24.328125 -1.984375 24.328125 -1.765625 L 24.328125 -0.328125 C 24.328125 -0.109375 24.21875 0 24 0 Z M 24 0 "/></g></g></g><g fill="#000000" fill-opacity="0.4"><g transform="translate(232.910361, 189.716824)"><g><path d="M 16.53125 0 L 1.703125 0 C 1.460938 0 1.34375 -0.109375 1.34375 -0.328125 L 1.34375 -1.765625 C 1.34375 -1.984375 1.460938 -2.09375 1.703125 -2.09375 L 3.828125 -2.09375 L 3.828125 -17.96875 L 1.703125 -17.96875 C 1.460938 -17.96875 1.34375 -18.078125 1.34375 -18.296875 L 1.34375 -19.71875 C 1.34375 -19.945312 1.460938 -20.0625 1.703125 -20.0625 L 16.53125 -20.0625 C 16.78125 -20.0625 16.90625 -19.945312 16.90625 -19.71875 L 16.90625 -15.21875 C 16.90625 -14.976562 16.78125 -14.859375 16.53125 -14.859375 L 15.03125 -14.859375 C 14.800781 -14.859375 14.6875 -14.976562 14.6875 -15.21875 L 14.6875 -17.96875 L 6.265625 -17.96875 L 6.265625 -11.03125 L 13.328125 -11.03125 C 13.566406 -11.03125 13.6875 -10.921875 13.6875 -10.703125 L 13.6875 -9.28125 C 13.6875 -9.050781 13.566406 -8.9375 13.328125 -8.9375 L 6.265625 -8.9375 L 6.265625 -2.09375 L 14.671875 -2.09375 L 14.671875 -4.828125 C 14.671875 -5.054688 14.789062 -5.171875 15.03125 -5.171875 L 16.53125 -5.171875 C 16.78125 -5.171875 16.90625 -5.054688 16.90625 -4.828125 L 16.90625 -0.328125 C 16.90625 -0.109375 16.78125 0 16.53125 0 Z M 16.53125 0 "/></g></g></g><g fill="#000000" fill-opacity="0.4"><g transform="translate(254.228139, 189.716824)"><g><path d="M 9.546875 0 L 1.53125 0 C 1.3125 0 1.203125 -0.109375 1.203125 -0.328125 L 1.203125 -1.765625 C 1.203125 -1.984375 1.3125 -2.09375 1.53125 -2.09375 L 3.6875 -2.09375 L 3.6875 -17.96875 L 1.53125 -17.96875 C 1.3125 -17.96875 1.203125 -18.078125 1.203125 -18.296875 L 1.203125 -19.71875 C 1.203125 -19.945312 1.3125 -20.0625 1.53125 -20.0625 L 9.078125 -20.0625 C 12.171875 -20.0625 14.628906 -19.171875 16.453125 -17.390625 C 18.273438 -15.609375 19.1875 -13.160156 19.1875 -10.046875 C 19.1875 -6.941406 18.320312 -4.488281 16.59375 -2.6875 C 14.863281 -0.894531 12.515625 0 9.546875 0 Z M 6.125 -2.09375 L 8.890625 -2.09375 C 14.066406 -2.132812 16.65625 -4.769531 16.65625 -10 C 16.65625 -12.507812 15.988281 -14.460938 14.65625 -15.859375 C 13.320312 -17.265625 11.367188 -17.96875 8.796875 -17.96875 L 6.125 -17.96875 Z M 6.125 -2.09375 "/></g></g></g><g fill="#000000" fill-opacity="0.4"><g transform="translate(277.976482, 189.716824)"><g><path d="M 8.40625 0 L 1.703125 0 C 1.460938 0 1.34375 -0.109375 1.34375 -0.328125 L 1.34375 -1.765625 C 1.34375 -1.984375 1.460938 -2.09375 1.703125 -2.09375 L 3.828125 -2.09375 L 3.828125 -17.96875 L 1.703125 -17.96875 C 1.460938 -17.96875 1.34375 -18.078125 1.34375 -18.296875 L 1.34375 -19.71875 C 1.34375 -19.945312 1.460938 -20.0625 1.703125 -20.0625 L 8.40625 -20.0625 C 8.644531 -20.0625 8.765625 -19.945312 8.765625 -19.71875 L 8.765625 -18.296875 C 8.765625 -18.078125 8.644531 -17.96875 8.40625 -17.96875 L 6.265625 -17.96875 L 6.265625 -2.09375 L 8.40625 -2.09375 C 8.644531 -2.09375 8.765625 -1.984375 8.765625 -1.765625 L 8.765625 -0.328125 C 8.765625 -0.109375 8.644531 0 8.40625 0 Z M 8.40625 0 "/></g></g></g><g fill="#000000" fill-opacity="0.4"><g transform="translate(291.164446, 189.716824)"><g><path d="M 19.46875 -5.0625 C 19.5625 -4.976562 19.609375 -4.882812 19.609375 -4.78125 C 19.609375 -4.6875 19.566406 -4.550781 19.484375 -4.375 C 19.398438 -4.195312 19.257812 -3.960938 19.0625 -3.671875 C 18.875 -3.378906 18.523438 -2.984375 18.015625 -2.484375 C 17.515625 -1.984375 16.96875 -1.550781 16.375 -1.1875 C 15.78125 -0.820312 14.992188 -0.5 14.015625 -0.21875 C 13.035156 0.0625 11.988281 0.203125 10.875 0.203125 C 8.144531 0.203125 5.875 -0.742188 4.0625 -2.640625 C 2.25 -4.546875 1.34375 -7.039062 1.34375 -10.125 C 1.34375 -13.207031 2.257812 -15.660156 4.09375 -17.484375 C 5.925781 -19.316406 8.140625 -20.234375 10.734375 -20.234375 C 13.617188 -20.234375 15.710938 -19.234375 17.015625 -17.234375 L 16.984375 -19.71875 C 16.953125 -19.945312 17.066406 -20.0625 17.328125 -20.0625 L 18.890625 -20.0625 C 19.128906 -20.0625 19.25 -19.945312 19.25 -19.71875 L 19.25 -13.640625 C 19.25 -13.390625 19.128906 -13.265625 18.890625 -13.265625 L 17.125 -13.265625 C 16.90625 -13.265625 16.796875 -13.390625 16.796875 -13.640625 L 16.796875 -13.890625 C 16.796875 -14.742188 16.210938 -15.628906 15.046875 -16.546875 C 13.878906 -17.472656 12.429688 -17.9375 10.703125 -17.9375 C 8.972656 -17.9375 7.410156 -17.25 6.015625 -15.875 C 4.628906 -14.507812 3.9375 -12.570312 3.9375 -10.0625 C 3.9375 -7.5625 4.632812 -5.617188 6.03125 -4.234375 C 7.425781 -2.847656 9.066406 -2.15625 10.953125 -2.15625 C 12.984375 -2.15625 14.582031 -2.609375 15.75 -3.515625 C 16.664062 -4.222656 17.335938 -4.941406 17.765625 -5.671875 C 17.910156 -5.953125 18.085938 -6.007812 18.296875 -5.84375 Z M 19.46875 -5.0625 "/></g></g></g><g fill="#000000" fill-opacity="0.4"><g transform="translate(315.248055, 189.716824)"><g><path d="M 8.40625 0 L 1.703125 0 C 1.460938 0 1.34375 -0.109375 1.34375 -0.328125 L 1.34375 -1.765625 C 1.34375 -1.984375 1.460938 -2.09375 1.703125 -2.09375 L 3.828125 -2.09375 L 3.828125 -17.96875 L 1.703125 -17.96875 C 1.460938 -17.96875 1.34375 -18.078125 1.34375 -18.296875 L 1.34375 -19.71875 C 1.34375 -19.945312 1.460938 -20.0625 1.703125 -20.0625 L 8.40625 -20.0625 C 8.644531 -20.0625 8.765625 -19.945312 8.765625 -19.71875 L 8.765625 -18.296875 C 8.765625 -18.078125 8.644531 -17.96875 8.40625 -17.96875 L 6.265625 -17.96875 L 6.265625 -2.09375 L 8.40625 -2.09375 C 8.644531 -2.09375 8.765625 -1.984375 8.765625 -1.765625 L 8.765625 -0.328125 C 8.765625 -0.109375 8.644531 0 8.40625 0 Z M 8.40625 0 "/></g></g></g><g fill="#545454" fill-opacity="1"><g transform="translate(39.060727, 188.481564)"><g><path d="M 19.28125 0 L 17.796875 0 C 17.554688 0 17.4375 -0.109375 17.4375 -0.328125 L 17.453125 -2.265625 C 15.816406 -0.617188 13.632812 0.203125 10.90625 0.203125 C 8.175781 0.203125 5.898438 -0.742188 4.078125 -2.640625 C 2.253906 -4.546875 1.34375 -7.046875 1.34375 -10.140625 C 1.34375 -12.210938 1.800781 -14.03125 2.71875 -15.59375 C 3.644531 -17.15625 4.816406 -18.316406 6.234375 -19.078125 C 7.660156 -19.847656 9.207031 -20.234375 10.875 -20.234375 C 13.71875 -20.234375 15.765625 -19.347656 17.015625 -17.578125 L 16.984375 -19.71875 C 16.953125 -19.945312 17.066406 -20.0625 17.328125 -20.0625 L 18.890625 -20.0625 C 19.128906 -20.0625 19.25 -19.945312 19.25 -19.71875 L 19.25 -13.96875 C 19.25 -13.75 19.128906 -13.640625 18.890625 -13.640625 L 17.125 -13.640625 C 16.90625 -13.640625 16.796875 -13.75 16.796875 -13.96875 L 16.796875 -14.296875 C 16.796875 -15.117188 16.226562 -15.929688 15.09375 -16.734375 C 13.96875 -17.535156 12.53125 -17.9375 10.78125 -17.9375 C 9.03125 -17.9375 7.453125 -17.210938 6.046875 -15.765625 C 4.640625 -14.328125 3.9375 -12.398438 3.9375 -9.984375 C 3.9375 -7.578125 4.644531 -5.671875 6.0625 -4.265625 C 7.476562 -2.859375 9.0625 -2.15625 10.8125 -2.15625 C 12.5625 -2.15625 13.941406 -2.429688 14.953125 -2.984375 C 15.972656 -3.546875 16.734375 -4.207031 17.234375 -4.96875 L 17.234375 -7.15625 L 12.046875 -7.15625 C 11.816406 -7.15625 11.703125 -7.273438 11.703125 -7.515625 L 11.703125 -8.796875 C 11.703125 -9.023438 11.816406 -9.140625 12.046875 -9.140625 L 19.28125 -9.140625 C 19.5 -9.140625 19.609375 -9.023438 19.609375 -8.796875 L 19.609375 -0.328125 C 19.609375 -0.109375 19.5 0 19.28125 0 Z M 19.28125 0 "/></g></g></g><g fill="#545454" fill-opacity="1"><g transform="translate(63.088451, 188.481564)"><g><path d="M 21.453125 0 L 15.140625 0 C 14.921875 0 14.8125 -0.109375 14.8125 -0.328125 L 14.8125 -1.765625 C 14.8125 -1.984375 14.921875 -2.09375 15.140625 -2.09375 L 17.09375 -2.09375 L 15.28125 -6.921875 L 7.484375 -6.921875 L 5.671875 -2.09375 L 7.625 -2.09375 C 7.851562 -2.09375 7.96875 -1.984375 7.96875 -1.765625 L 7.96875 -0.328125 C 7.96875 -0.109375 7.851562 0 7.625 0 L 1.34375 0 C 1.113281 0 1 -0.109375 1 -0.328125 L 1 -1.765625 C 1 -1.984375 1.113281 -2.09375 1.34375 -2.09375 L 3.21875 -2.09375 L 9.21875 -17.96875 L 7.703125 -17.96875 C 7.460938 -17.96875 7.34375 -18.078125 7.34375 -18.296875 L 7.34375 -19.71875 C 7.34375 -19.945312 7.460938 -20.0625 7.703125 -20.0625 L 11.515625 -20.0625 C 11.960938 -20.0625 12.300781 -19.96875 12.53125 -19.78125 C 12.757812 -19.59375 12.957031 -19.285156 13.125 -18.859375 L 19.5625 -2.09375 L 21.453125 -2.09375 C 21.679688 -2.09375 21.796875 -1.984375 21.796875 -1.765625 L 21.796875 -0.328125 C 21.796875 -0.109375 21.679688 0 21.453125 0 Z M 14.53125 -8.859375 L 11.421875 -17.15625 L 11.34375 -17.15625 L 8.21875 -8.859375 Z M 14.53125 -8.859375 "/></g></g></g><g fill="#545454" fill-opacity="1"><g transform="translate(89.658492, 188.481564)"><g><path d="M 10.734375 0 L 1.703125 0 C 1.460938 0 1.34375 -0.109375 1.34375 -0.328125 L 1.34375 -1.765625 C 1.34375 -1.984375 1.460938 -2.09375 1.703125 -2.09375 L 3.828125 -2.09375 L 3.828125 -17.96875 L 1.703125 -17.96875 C 1.460938 -17.96875 1.34375 -18.078125 1.34375 -18.296875 L 1.34375 -19.71875 C 1.34375 -19.945312 1.460938 -20.0625 1.703125 -20.0625 L 10.703125 -20.0625 C 12.566406 -20.0625 14.015625 -19.566406 15.046875 -18.578125 C 16.078125 -17.585938 16.59375 -16.289062 16.59375 -14.6875 C 16.59375 -12.8125 15.765625 -11.40625 14.109375 -10.46875 C 16.492188 -9.78125 17.6875 -8.203125 17.6875 -5.734375 C 17.6875 -3.972656 17.101562 -2.578125 15.9375 -1.546875 C 14.769531 -0.515625 13.035156 0 10.734375 0 Z M 6.265625 -2.09375 L 10.53125 -2.09375 C 12 -2.09375 13.144531 -2.40625 13.96875 -3.03125 C 14.800781 -3.65625 15.21875 -4.617188 15.21875 -5.921875 C 15.21875 -8.253906 13.710938 -9.421875 10.703125 -9.421875 L 6.265625 -9.421875 Z M 6.265625 -11.265625 L 10.53125 -11.265625 C 11.5 -11.273438 12.34375 -11.550781 13.0625 -12.09375 C 13.78125 -12.632812 14.140625 -13.484375 14.140625 -14.640625 C 14.140625 -15.796875 13.757812 -16.640625 13 -17.171875 C 12.25 -17.703125 11.320312 -17.96875 10.21875 -17.96875 L 6.265625 -17.96875 Z M 6.265625 -11.265625 "/></g></g></g><g fill="#545454" fill-opacity="1"><g transform="translate(111.758525, 188.481564)"><g><path d="M 18.296875 0 L 15.875 0 C 15.195312 0 14.632812 -0.445312 14.1875 -1.34375 L 11.5625 -6.671875 C 11.34375 -7.140625 11.101562 -7.484375 10.84375 -7.703125 C 10.59375 -7.929688 10.25 -8.054688 9.8125 -8.078125 L 6.265625 -8.078125 L 6.265625 -2.09375 L 8.765625 -2.09375 C 8.992188 -2.09375 9.109375 -1.984375 9.109375 -1.765625 L 9.109375 -0.328125 C 9.109375 -0.109375 8.992188 0 8.765625 0 L 1.703125 0 C 1.460938 0 1.34375 -0.109375 1.34375 -0.328125 L 1.34375 -1.765625 C 1.34375 -1.984375 1.460938 -2.09375 1.703125 -2.09375 L 3.828125 -2.09375 L 3.828125 -17.96875 L 1.703125 -17.96875 C 1.460938 -17.96875 1.34375 -18.078125 1.34375 -18.296875 L 1.34375 -19.71875 C 1.34375 -19.945312 1.460938 -20.0625 1.703125 -20.0625 L 10.3125 -20.0625 C 12.300781 -20.0625 13.921875 -19.535156 15.171875 -18.484375 C 16.421875 -17.429688 17.046875 -15.945312 17.046875 -14.03125 C 17.046875 -11.101562 15.675781 -9.273438 12.9375 -8.546875 C 13.289062 -8.265625 13.726562 -7.640625 14.25 -6.671875 L 16.59375 -2.09375 L 18.296875 -2.09375 C 18.523438 -2.09375 18.640625 -1.984375 18.640625 -1.765625 L 18.640625 -0.328125 C 18.640625 -0.109375 18.523438 0 18.296875 0 Z M 6.265625 -10.0625 L 9.828125 -10.0625 C 12.992188 -10.0625 14.578125 -11.351562 14.578125 -13.9375 C 14.578125 -16.625 12.992188 -17.96875 9.828125 -17.96875 L 6.265625 -17.96875 Z M 6.265625 -10.0625 "/></g></g></g><g fill="#545454" fill-opacity="1"><g transform="translate(134.80843, 188.481564)"><g><path d="M 8.40625 0 L 1.703125 0 C 1.460938 0 1.34375 -0.109375 1.34375 -0.328125 L 1.34375 -1.765625 C 1.34375 -1.984375 1.460938 -2.09375 1.703125 -2.09375 L 3.828125 -2.09375 L 3.828125 -17.96875 L 1.703125 -17.96875 C 1.460938 -17.96875 1.34375 -18.078125 1.34375 -18.296875 L 1.34375 -19.71875 C 1.34375 -19.945312 1.460938 -20.0625 1.703125 -20.0625 L 8.40625 -20.0625 C 8.644531 -20.0625 8.765625 -19.945312 8.765625 -19.71875 L 8.765625 -18.296875 C 8.765625 -18.078125 8.644531 -17.96875 8.40625 -17.96875 L 6.265625 -17.96875 L 6.265625 -2.09375 L 8.40625 -2.09375 C 8.644531 -2.09375 8.765625 -1.984375 8.765625 -1.765625 L 8.765625 -0.328125 C 8.765625 -0.109375 8.644531 0 8.40625 0 Z M 8.40625 0 "/></g></g></g><g fill="#545454" fill-opacity="1"><g transform="translate(147.996388, 188.481564)"><g><path d="M 16.53125 0 L 1.703125 0 C 1.460938 0 1.34375 -0.109375 1.34375 -0.328125 L 1.34375 -1.765625 C 1.34375 -1.984375 1.460938 -2.09375 1.703125 -2.09375 L 3.828125 -2.09375 L 3.828125 -17.96875 L 1.703125 -17.96875 C 1.460938 -17.96875 1.34375 -18.078125 1.34375 -18.296875 L 1.34375 -19.71875 C 1.34375 -19.945312 1.460938 -20.0625 1.703125 -20.0625 L 16.53125 -20.0625 C 16.78125 -20.0625 16.90625 -19.945312 16.90625 -19.71875 L 16.90625 -15.21875 C 16.90625 -14.976562 16.78125 -14.859375 16.53125 -14.859375 L 15.03125 -14.859375 C 14.800781 -14.859375 14.6875 -14.976562 14.6875 -15.21875 L 14.6875 -17.96875 L 6.265625 -17.96875 L 6.265625 -11.03125 L 13.328125 -11.03125 C 13.566406 -11.03125 13.6875 -10.921875 13.6875 -10.703125 L 13.6875 -9.28125 C 13.6875 -9.050781 13.566406 -8.9375 13.328125 -8.9375 L 6.265625 -8.9375 L 6.265625 -2.09375 L 14.671875 -2.09375 L 14.671875 -4.828125 C 14.671875 -5.054688 14.789062 -5.171875 15.03125 -5.171875 L 16.53125 -5.171875 C 16.78125 -5.171875 16.90625 -5.054688 16.90625 -4.828125 L 16.90625 -0.328125 C 16.90625 -0.109375 16.78125 0 16.53125 0 Z M 16.53125 0 "/></g></g></g><g fill="#545454" fill-opacity="1"><g transform="translate(169.314178, 188.481564)"><g><path d="M 16.984375 0 L 1.703125 0 C 1.460938 0 1.34375 -0.109375 1.34375 -0.328125 L 1.34375 -1.765625 C 1.34375 -1.984375 1.460938 -2.09375 1.703125 -2.09375 L 3.828125 -2.09375 L 3.828125 -17.96875 L 1.703125 -17.96875 C 1.460938 -17.96875 1.34375 -18.078125 1.34375 -18.296875 L 1.34375 -19.71875 C 1.34375 -19.945312 1.460938 -20.0625 1.703125 -20.0625 L 8.375 -20.0625 C 8.625 -20.0625 8.75 -19.941406 8.75 -19.703125 L 8.75 -18.328125 C 8.75 -18.085938 8.625 -17.96875 8.375 -17.96875 L 6.265625 -17.96875 L 6.265625 -2.09375 L 15.140625 -2.09375 L 15.140625 -4.828125 C 15.140625 -5.054688 15.257812 -5.171875 15.5 -5.171875 L 17.015625 -5.171875 C 17.234375 -5.171875 17.34375 -5.054688 17.34375 -4.828125 L 17.34375 -0.359375 C 17.34375 -0.117188 17.222656 0 16.984375 0 Z M 16.984375 0 "/></g></g></g><g fill="#545454" fill-opacity="1"><g transform="translate(191.106908, 188.481564)"><g/></g></g><g fill="#545454" fill-opacity="1"><g transform="translate(202.925931, 188.481564)"><g><path d="M 24 0 L 17.546875 0 C 17.316406 0 17.203125 -0.109375 17.203125 -0.328125 L 17.203125 -1.765625 C 17.203125 -1.984375 17.316406 -2.09375 17.546875 -2.09375 L 19.421875 -2.09375 L 19.421875 -16.015625 L 19.390625 -16.015625 L 14.078125 -2.828125 C 13.859375 -2.265625 13.445312 -1.984375 12.84375 -1.984375 C 12.25 -1.984375 11.84375 -2.265625 11.625 -2.828125 L 6.3125 -16.015625 L 6.265625 -16.015625 L 6.265625 -2.09375 L 8.125 -2.09375 C 8.375 -2.09375 8.5 -1.984375 8.5 -1.765625 L 8.5 -0.328125 C 8.5 -0.109375 8.375 0 8.125 0 L 1.703125 0 C 1.460938 0 1.34375 -0.109375 1.34375 -0.328125 L 1.34375 -1.765625 C 1.34375 -1.984375 1.460938 -2.09375 1.703125 -2.09375 L 3.828125 -2.09375 L 3.828125 -17.96875 L 1.703125 -17.96875 C 1.460938 -17.96875 1.34375 -18.078125 1.34375 -18.296875 L 1.34375 -19.71875 C 1.34375 -19.945312 1.460938 -20.0625 1.703125 -20.0625 L 6 -20.0625 C 6.632812 -20.0625 7.070312 -19.742188 7.3125 -19.109375 L 11.484375 -9.046875 L 12.796875 -5.53125 L 12.90625 -5.53125 C 13.425781 -6.976562 13.851562 -8.132812 14.1875 -9 L 18.390625 -19.109375 C 18.628906 -19.742188 19.070312 -20.0625 19.71875 -20.0625 L 24 -20.0625 C 24.21875 -20.0625 24.328125 -19.945312 24.328125 -19.71875 L 24.328125 -18.296875 C 24.328125 -18.078125 24.21875 -17.96875 24 -17.96875 L 21.84375 -17.96875 L 21.84375 -2.09375 L 24 -2.09375 C 24.21875 -2.09375 24.328125 -1.984375 24.328125 -1.765625 L 24.328125 -0.328125 C 24.328125 -0.109375 24.21875 0 24 0 Z M 24 0 "/></g></g></g><g fill="#545454" fill-opacity="1"><g transform="translate(231.675101, 188.481564)"><g><path d="M 16.53125 0 L 1.703125 0 C 1.460938 0 1.34375 -0.109375 1.34375 -0.328125 L 1.34375 -1.765625 C 1.34375 -1.984375 1.460938 -2.09375 1.703125 -2.09375 L 3.828125 -2.09375 L 3.828125 -17.96875 L 1.703125 -17.96875 C 1.460938 -17.96875 1.34375 -18.078125 1.34375 -18.296875 L 1.34375 -19.71875 C 1.34375 -19.945312 1.460938 -20.0625 1.703125 -20.0625 L 16.53125 -20.0625 C 16.78125 -20.0625 16.90625 -19.945312 16.90625 -19.71875 L 16.90625 -15.21875 C 16.90625 -14.976562 16.78125 -14.859375 16.53125 -14.859375 L 15.03125 -14.859375 C 14.800781 -14.859375 14.6875 -14.976562 14.6875 -15.21875 L 14.6875 -17.96875 L 6.265625 -17.96875 L 6.265625 -11.03125 L 13.328125 -11.03125 C 13.566406 -11.03125 13.6875 -10.921875 13.6875 -10.703125 L 13.6875 -9.28125 C 13.6875 -9.050781 13.566406 -8.9375 13.328125 -8.9375 L 6.265625 -8.9375 L 6.265625 -2.09375 L 14.671875 -2.09375 L 14.671875 -4.828125 C 14.671875 -5.054688 14.789062 -5.171875 15.03125 -5.171875 L 16.53125 -5.171875 C 16.78125 -5.171875 16.90625 -5.054688 16.90625 -4.828125 L 16.90625 -0.328125 C 16.90625 -0.109375 16.78125 0 16.53125 0 Z M 16.53125 0 "/></g></g></g><g fill="#545454" fill-opacity="1"><g transform="translate(252.992879, 188.481564)"><g><path d="M 9.546875 0 L 1.53125 0 C 1.3125 0 1.203125 -0.109375 1.203125 -0.328125 L 1.203125 -1.765625 C 1.203125 -1.984375 1.3125 -2.09375 1.53125 -2.09375 L 3.6875 -2.09375 L 3.6875 -17.96875 L 1.53125 -17.96875 C 1.3125 -17.96875 1.203125 -18.078125 1.203125 -18.296875 L 1.203125 -19.71875 C 1.203125 -19.945312 1.3125 -20.0625 1.53125 -20.0625 L 9.078125 -20.0625 C 12.171875 -20.0625 14.628906 -19.171875 16.453125 -17.390625 C 18.273438 -15.609375 19.1875 -13.160156 19.1875 -10.046875 C 19.1875 -6.941406 18.320312 -4.488281 16.59375 -2.6875 C 14.863281 -0.894531 12.515625 0 9.546875 0 Z M 6.125 -2.09375 L 8.890625 -2.09375 C 14.066406 -2.132812 16.65625 -4.769531 16.65625 -10 C 16.65625 -12.507812 15.988281 -14.460938 14.65625 -15.859375 C 13.320312 -17.265625 11.367188 -17.96875 8.796875 -17.96875 L 6.125 -17.96875 Z M 6.125 -2.09375 "/></g></g></g><g fill="#545454" fill-opacity="1"><g transform="translate(276.741222, 188.481564)"><g><path d="M 8.40625 0 L 1.703125 0 C 1.460938 0 1.34375 -0.109375 1.34375 -0.328125 L 1.34375 -1.765625 C 1.34375 -1.984375 1.460938 -2.09375 1.703125 -2.09375 L 3.828125 -2.09375 L 3.828125 -17.96875 L 1.703125 -17.96875 C 1.460938 -17.96875 1.34375 -18.078125 1.34375 -18.296875 L 1.34375 -19.71875 C 1.34375 -19.945312 1.460938 -20.0625 1.703125 -20.0625 L 8.40625 -20.0625 C 8.644531 -20.0625 8.765625 -19.945312 8.765625 -19.71875 L 8.765625 -18.296875 C 8.765625 -18.078125 8.644531 -17.96875 8.40625 -17.96875 L 6.265625 -17.96875 L 6.265625 -2.09375 L 8.40625 -2.09375 C 8.644531 -2.09375 8.765625 -1.984375 8.765625 -1.765625 L 8.765625 -0.328125 C 8.765625 -0.109375 8.644531 0 8.40625 0 Z M 8.40625 0 "/></g></g></g><g fill="#545454" fill-opacity="1"><g transform="translate(289.929187, 188.481564)"><g><path d="M 19.46875 -5.0625 C 19.5625 -4.976562 19.609375 -4.882812 19.609375 -4.78125 C 19.609375 -4.6875 19.566406 -4.550781 19.484375 -4.375 C 19.398438 -4.195312 19.257812 -3.960938 19.0625 -3.671875 C 18.875 -3.378906 18.523438 -2.984375 18.015625 -2.484375 C 17.515625 -1.984375 16.96875 -1.550781 16.375 -1.1875 C 15.78125 -0.820312 14.992188 -0.5 14.015625 -0.21875 C 13.035156 0.0625 11.988281 0.203125 10.875 0.203125 C 8.144531 0.203125 5.875 -0.742188 4.0625 -2.640625 C 2.25 -4.546875 1.34375 -7.039062 1.34375 -10.125 C 1.34375 -13.207031 2.257812 -15.660156 4.09375 -17.484375 C 5.925781 -19.316406 8.140625 -20.234375 10.734375 -20.234375 C 13.617188 -20.234375 15.710938 -19.234375 17.015625 -17.234375 L 16.984375 -19.71875 C 16.953125 -19.945312 17.066406 -20.0625 17.328125 -20.0625 L 18.890625 -20.0625 C 19.128906 -20.0625 19.25 -19.945312 19.25 -19.71875 L 19.25 -13.640625 C 19.25 -13.390625 19.128906 -13.265625 18.890625 -13.265625 L 17.125 -13.265625 C 16.90625 -13.265625 16.796875 -13.390625 16.796875 -13.640625 L 16.796875 -13.890625 C 16.796875 -14.742188 16.210938 -15.628906 15.046875 -16.546875 C 13.878906 -17.472656 12.429688 -17.9375 10.703125 -17.9375 C 8.972656 -17.9375 7.410156 -17.25 6.015625 -15.875 C 4.628906 -14.507812 3.9375 -12.570312 3.9375 -10.0625 C 3.9375 -7.5625 4.632812 -5.617188 6.03125 -4.234375 C 7.425781 -2.847656 9.066406 -2.15625 10.953125 -2.15625 C 12.984375 -2.15625 14.582031 -2.609375 15.75 -3.515625 C 16.664062 -4.222656 17.335938 -4.941406 17.765625 -5.671875 C 17.910156 -5.953125 18.085938 -6.007812 18.296875 -5.84375 Z M 19.46875 -5.0625 "/></g></g></g><g fill="#545454" fill-opacity="1"><g transform="translate(314.012796, 188.481564)"><g><path d="M 8.40625 0 L 1.703125 0 C 1.460938 0 1.34375 -0.109375 1.34375 -0.328125 L 1.34375 -1.765625 C 1.34375 -1.984375 1.460938 -2.09375 1.703125 -2.09375 L 3.828125 -2.09375 L 3.828125 -17.96875 L 1.703125 -17.96875 C 1.460938 -17.96875 1.34375 -18.078125 1.34375 -18.296875 L 1.34375 -19.71875 C 1.34375 -19.945312 1.460938 -20.0625 1.703125 -20.0625 L 8.40625 -20.0625 C 8.644531 -20.0625 8.765625 -19.945312 8.765625 -19.71875 L 8.765625 -18.296875 C 8.765625 -18.078125 8.644531 -17.96875 8.40625 -17.96875 L 6.265625 -17.96875 L 6.265625 -2.09375 L 8.40625 -2.09375 C 8.644531 -2.09375 8.765625 -1.984375 8.765625 -1.765625 L 8.765625 -0.328125 C 8.765625 -0.109375 8.644531 0 8.40625 0 Z M 8.40625 0 "/></g></g></g><g fill="#000000" fill-opacity="0.4"><g transform="translate(328.424878, 189.716824)"><g/></g></g><g fill="#545454" fill-opacity="1"><g transform="translate(327.189618, 188.481564)"><g/></g></g><g fill="#000000" fill-opacity="1"><g transform="translate(85.485156, 221.53062)"><g><path d="M 9.765625 -2.53125 C 9.804688 -2.5 9.828125 -2.457031 9.828125 -2.40625 C 9.828125 -2.351562 9.804688 -2.28125 9.765625 -2.1875 C 9.722656 -2.101562 9.648438 -1.988281 9.546875 -1.84375 C 9.453125 -1.695312 9.28125 -1.5 9.03125 -1.25 C 8.78125 -1 8.503906 -0.78125 8.203125 -0.59375 C 7.898438 -0.414062 7.503906 -0.253906 7.015625 -0.109375 C 6.523438 0.0234375 6.003906 0.09375 5.453125 0.09375 C 4.085938 0.09375 2.945312 -0.378906 2.03125 -1.328125 C 1.125 -2.285156 0.671875 -3.535156 0.671875 -5.078125 C 0.671875 -6.617188 1.128906 -7.847656 2.046875 -8.765625 C 2.972656 -9.679688 4.082031 -10.140625 5.375 -10.140625 C 6.820312 -10.140625 7.875 -9.640625 8.53125 -8.640625 L 8.515625 -9.890625 C 8.492188 -9.992188 8.550781 -10.046875 8.6875 -10.046875 L 9.46875 -10.046875 C 9.582031 -10.046875 9.640625 -9.992188 9.640625 -9.890625 L 9.640625 -6.828125 C 9.640625 -6.710938 9.582031 -6.65625 9.46875 -6.65625 L 8.578125 -6.65625 C 8.460938 -6.65625 8.40625 -6.710938 8.40625 -6.828125 L 8.40625 -6.953125 C 8.40625 -7.390625 8.113281 -7.835938 7.53125 -8.296875 C 6.945312 -8.753906 6.222656 -8.984375 5.359375 -8.984375 C 4.492188 -8.984375 3.710938 -8.640625 3.015625 -7.953125 C 2.316406 -7.273438 1.96875 -6.304688 1.96875 -5.046875 C 1.96875 -3.785156 2.316406 -2.804688 3.015625 -2.109375 C 3.722656 -1.421875 4.546875 -1.078125 5.484375 -1.078125 C 6.503906 -1.078125 7.304688 -1.304688 7.890625 -1.765625 C 8.347656 -2.117188 8.6875 -2.476562 8.90625 -2.84375 C 8.976562 -2.976562 9.066406 -3.003906 9.171875 -2.921875 Z M 9.765625 -2.53125 "/></g></g></g><g fill="#000000" fill-opacity="1"><g transform="translate(97.407291, 221.53062)"><g><path d="M 4.21875 0 L 0.859375 0 C 0.734375 0 0.671875 -0.0546875 0.671875 -0.171875 L 0.671875 -0.875 C 0.671875 -0.988281 0.734375 -1.046875 0.859375 -1.046875 L 1.921875 -1.046875 L 1.921875 -9 L 0.859375 -9 C 0.734375 -9 0.671875 -9.054688 0.671875 -9.171875 L 0.671875 -9.890625 C 0.671875 -9.992188 0.734375 -10.046875 0.859375 -10.046875 L 4.21875 -10.046875 C 4.332031 -10.046875 4.390625 -9.992188 4.390625 -9.890625 L 4.390625 -9.171875 C 4.390625 -9.054688 4.332031 -9 4.21875 -9 L 3.140625 -9 L 3.140625 -1.046875 L 4.21875 -1.046875 C 4.332031 -1.046875 4.390625 -0.988281 4.390625 -0.875 L 4.390625 -0.171875 C 4.390625 -0.0546875 4.332031 0 4.21875 0 Z M 4.21875 0 "/></g></g></g><g fill="#000000" fill-opacity="1"><g transform="translate(103.872471, 221.53062)"><g><path d="M 9.171875 0 L 7.953125 0 C 7.617188 0 7.335938 -0.222656 7.109375 -0.671875 L 5.796875 -3.34375 C 5.679688 -3.582031 5.5625 -3.753906 5.4375 -3.859375 C 5.3125 -3.972656 5.132812 -4.035156 4.90625 -4.046875 L 3.140625 -4.046875 L 3.140625 -1.046875 L 4.390625 -1.046875 C 4.503906 -1.046875 4.5625 -0.988281 4.5625 -0.875 L 4.5625 -0.171875 C 4.5625 -0.0546875 4.503906 0 4.390625 0 L 0.859375 0 C 0.734375 0 0.671875 -0.0546875 0.671875 -0.171875 L 0.671875 -0.875 C 0.671875 -0.988281 0.734375 -1.046875 0.859375 -1.046875 L 1.921875 -1.046875 L 1.921875 -9 L 0.859375 -9 C 0.734375 -9 0.671875 -9.054688 0.671875 -9.171875 L 0.671875 -9.890625 C 0.671875 -9.992188 0.734375 -10.046875 0.859375 -10.046875 L 5.171875 -10.046875 C 6.160156 -10.046875 6.96875 -9.78125 7.59375 -9.25 C 8.226562 -8.726562 8.546875 -7.988281 8.546875 -7.03125 C 8.546875 -5.5625 7.859375 -4.644531 6.484375 -4.28125 C 6.660156 -4.144531 6.878906 -3.832031 7.140625 -3.34375 L 8.3125 -1.046875 L 9.171875 -1.046875 C 9.285156 -1.046875 9.34375 -0.988281 9.34375 -0.875 L 9.34375 -0.171875 C 9.34375 -0.0546875 9.285156 0 9.171875 0 Z M 3.140625 -5.046875 L 4.921875 -5.046875 C 6.515625 -5.046875 7.3125 -5.691406 7.3125 -6.984375 C 7.3125 -8.328125 6.515625 -9 4.921875 -9 L 3.140625 -9 Z M 3.140625 -5.046875 "/></g></g></g><g fill="#000000" fill-opacity="1"><g transform="translate(115.276886, 221.53062)"><g><path d="M 8.265625 -3.640625 L 8.265625 -9 L 7.1875 -9 C 7.070312 -9 7.015625 -9.054688 7.015625 -9.171875 L 7.015625 -9.890625 C 7.015625 -9.992188 7.070312 -10.046875 7.1875 -10.046875 L 10.5625 -10.046875 C 10.664062 -10.046875 10.71875 -9.992188 10.71875 -9.890625 L 10.71875 -9.171875 C 10.71875 -9.054688 10.664062 -9 10.5625 -9 L 9.484375 -9 L 9.484375 -3.765625 C 9.484375 -2.503906 9.148438 -1.546875 8.484375 -0.890625 C 7.828125 -0.234375 6.898438 0.09375 5.703125 0.09375 C 4.503906 0.09375 3.570312 -0.234375 2.90625 -0.890625 C 2.25 -1.546875 1.921875 -2.503906 1.921875 -3.765625 L 1.921875 -9 L 0.859375 -9 C 0.734375 -9 0.671875 -9.054688 0.671875 -9.171875 L 0.671875 -9.890625 C 0.671875 -9.992188 0.734375 -10.046875 0.859375 -10.046875 L 4.21875 -10.046875 C 4.332031 -10.046875 4.390625 -9.992188 4.390625 -9.890625 L 4.390625 -9.171875 C 4.390625 -9.054688 4.332031 -9 4.21875 -9 L 3.140625 -9 L 3.140625 -3.71875 C 3.140625 -1.925781 4 -1.03125 5.71875 -1.03125 C 6.59375 -1.03125 7.234375 -1.257812 7.640625 -1.71875 C 8.054688 -2.1875 8.265625 -2.828125 8.265625 -3.640625 Z M 8.265625 -3.640625 "/></g></g></g><g fill="#000000" fill-opacity="1"><g transform="translate(128.06653, 221.53062)"><g><path d="M 9.171875 0 L 7.953125 0 C 7.617188 0 7.335938 -0.222656 7.109375 -0.671875 L 5.796875 -3.34375 C 5.679688 -3.582031 5.5625 -3.753906 5.4375 -3.859375 C 5.3125 -3.972656 5.132812 -4.035156 4.90625 -4.046875 L 3.140625 -4.046875 L 3.140625 -1.046875 L 4.390625 -1.046875 C 4.503906 -1.046875 4.5625 -0.988281 4.5625 -0.875 L 4.5625 -0.171875 C 4.5625 -0.0546875 4.503906 0 4.390625 0 L 0.859375 0 C 0.734375 0 0.671875 -0.0546875 0.671875 -0.171875 L 0.671875 -0.875 C 0.671875 -0.988281 0.734375 -1.046875 0.859375 -1.046875 L 1.921875 -1.046875 L 1.921875 -9 L 0.859375 -9 C 0.734375 -9 0.671875 -9.054688 0.671875 -9.171875 L 0.671875 -9.890625 C 0.671875 -9.992188 0.734375 -10.046875 0.859375 -10.046875 L 5.171875 -10.046875 C 6.160156 -10.046875 6.96875 -9.78125 7.59375 -9.25 C 8.226562 -8.726562 8.546875 -7.988281 8.546875 -7.03125 C 8.546875 -5.5625 7.859375 -4.644531 6.484375 -4.28125 C 6.660156 -4.144531 6.878906 -3.832031 7.140625 -3.34375 L 8.3125 -1.046875 L 9.171875 -1.046875 C 9.285156 -1.046875 9.34375 -0.988281 9.34375 -0.875 L 9.34375 -0.171875 C 9.34375 -0.0546875 9.285156 0 9.171875 0 Z M 3.140625 -5.046875 L 4.921875 -5.046875 C 6.515625 -5.046875 7.3125 -5.691406 7.3125 -6.984375 C 7.3125 -8.328125 6.515625 -9 4.921875 -9 L 3.140625 -9 Z M 3.140625 -5.046875 "/></g></g></g><g fill="#000000" fill-opacity="1"><g transform="translate(139.470945, 221.53062)"><g><path d="M 9.65625 0 L 8.921875 0 C 8.796875 0 8.734375 -0.0546875 8.734375 -0.171875 L 8.75 -1.140625 C 7.925781 -0.316406 6.832031 0.09375 5.46875 0.09375 C 4.101562 0.09375 2.960938 -0.378906 2.046875 -1.328125 C 1.128906 -2.285156 0.671875 -3.535156 0.671875 -5.078125 C 0.671875 -6.117188 0.898438 -7.03125 1.359375 -7.8125 C 1.828125 -8.59375 2.414062 -9.175781 3.125 -9.5625 C 3.84375 -9.945312 4.617188 -10.140625 5.453125 -10.140625 C 6.878906 -10.140625 7.90625 -9.695312 8.53125 -8.8125 L 8.515625 -9.890625 C 8.492188 -9.992188 8.550781 -10.046875 8.6875 -10.046875 L 9.46875 -10.046875 C 9.582031 -10.046875 9.640625 -9.992188 9.640625 -9.890625 L 9.640625 -7 C 9.640625 -6.882812 9.582031 -6.828125 9.46875 -6.828125 L 8.578125 -6.828125 C 8.460938 -6.828125 8.40625 -6.882812 8.40625 -7 L 8.40625 -7.171875 C 8.40625 -7.578125 8.125 -7.976562 7.5625 -8.375 C 7 -8.78125 6.28125 -8.984375 5.40625 -8.984375 C 4.53125 -8.984375 3.738281 -8.617188 3.03125 -7.890625 C 2.320312 -7.171875 1.96875 -6.207031 1.96875 -5 C 1.96875 -3.789062 2.320312 -2.832031 3.03125 -2.125 C 3.75 -1.425781 4.546875 -1.078125 5.421875 -1.078125 C 6.296875 -1.078125 6.988281 -1.21875 7.5 -1.5 C 8.007812 -1.78125 8.390625 -2.109375 8.640625 -2.484375 L 8.640625 -3.578125 L 6.03125 -3.578125 C 5.914062 -3.578125 5.859375 -3.640625 5.859375 -3.765625 L 5.859375 -4.40625 C 5.859375 -4.519531 5.914062 -4.578125 6.03125 -4.578125 L 9.65625 -4.578125 C 9.769531 -4.578125 9.828125 -4.519531 9.828125 -4.40625 L 9.828125 -0.171875 C 9.828125 -0.0546875 9.769531 0 9.65625 0 Z M 9.65625 0 "/></g></g></g><g fill="#000000" fill-opacity="1"><g transform="translate(151.365086, 221.53062)"><g><path d="M 4.21875 0 L 0.859375 0 C 0.734375 0 0.671875 -0.0546875 0.671875 -0.171875 L 0.671875 -0.875 C 0.671875 -0.988281 0.734375 -1.046875 0.859375 -1.046875 L 1.921875 -1.046875 L 1.921875 -9 L 0.859375 -9 C 0.734375 -9 0.671875 -9.054688 0.671875 -9.171875 L 0.671875 -9.890625 C 0.671875 -9.992188 0.734375 -10.046875 0.859375 -10.046875 L 4.21875 -10.046875 C 4.332031 -10.046875 4.390625 -9.992188 4.390625 -9.890625 L 4.390625 -9.171875 C 4.390625 -9.054688 4.332031 -9 4.21875 -9 L 3.140625 -9 L 3.140625 -1.046875 L 4.21875 -1.046875 C 4.332031 -1.046875 4.390625 -0.988281 4.390625 -0.875 L 4.390625 -0.171875 C 4.390625 -0.0546875 4.332031 0 4.21875 0 Z M 4.21875 0 "/></g></g></g><g fill="#000000" fill-opacity="1"><g transform="translate(157.830265, 221.53062)"><g><path d="M 10.75 0 L 7.59375 0 C 7.476562 0 7.421875 -0.0546875 7.421875 -0.171875 L 7.421875 -0.875 C 7.421875 -0.988281 7.476562 -1.046875 7.59375 -1.046875 L 8.5625 -1.046875 L 7.65625 -3.46875 L 3.75 -3.46875 L 2.84375 -1.046875 L 3.828125 -1.046875 C 3.929688 -1.046875 3.984375 -0.988281 3.984375 -0.875 L 3.984375 -0.171875 C 3.984375 -0.0546875 3.929688 0 3.828125 0 L 0.671875 0 C 0.554688 0 0.5 -0.0546875 0.5 -0.171875 L 0.5 -0.875 C 0.5 -0.988281 0.554688 -1.046875 0.671875 -1.046875 L 1.609375 -1.046875 L 4.625 -9 L 3.859375 -9 C 3.742188 -9 3.6875 -9.054688 3.6875 -9.171875 L 3.6875 -9.890625 C 3.6875 -9.992188 3.742188 -10.046875 3.859375 -10.046875 L 5.765625 -10.046875 C 5.992188 -10.046875 6.164062 -10 6.28125 -9.90625 C 6.394531 -9.8125 6.492188 -9.660156 6.578125 -9.453125 L 9.796875 -1.046875 L 10.75 -1.046875 C 10.863281 -1.046875 10.921875 -0.988281 10.921875 -0.875 L 10.921875 -0.171875 C 10.921875 -0.0546875 10.863281 0 10.75 0 Z M 7.28125 -4.4375 L 5.71875 -8.59375 L 5.6875 -8.59375 L 4.109375 -4.4375 Z M 7.34375 -12.734375 L 7.6875 -12.734375 C 7.800781 -12.734375 7.859375 -12.679688 7.859375 -12.578125 C 7.859375 -11.515625 7.453125 -10.984375 6.640625 -10.984375 C 6.335938 -10.984375 6.070312 -11.054688 5.84375 -11.203125 C 5.613281 -11.347656 5.40625 -11.492188 5.21875 -11.640625 C 5.039062 -11.796875 4.859375 -11.875 4.671875 -11.875 C 4.492188 -11.875 4.359375 -11.8125 4.265625 -11.6875 C 4.171875 -11.570312 4.125 -11.367188 4.125 -11.078125 C 4.125 -10.960938 4.070312 -10.90625 3.96875 -10.90625 L 3.625 -10.90625 C 3.507812 -10.90625 3.453125 -10.960938 3.453125 -11.078125 C 3.453125 -12.085938 3.851562 -12.59375 4.65625 -12.59375 C 5.007812 -12.59375 5.367188 -12.4375 5.734375 -12.125 C 6.109375 -11.8125 6.398438 -11.65625 6.609375 -11.65625 C 6.828125 -11.65625 6.976562 -11.71875 7.0625 -11.84375 C 7.144531 -11.976562 7.1875 -12.222656 7.1875 -12.578125 C 7.1875 -12.679688 7.238281 -12.734375 7.34375 -12.734375 Z M 7.34375 -12.734375 "/></g></g></g><g fill="#000000" fill-opacity="1"><g transform="translate(170.997699, 221.53062)"><g><path d="M 10.421875 -5.0625 C 10.421875 -3.53125 9.957031 -2.285156 9.03125 -1.328125 C 8.113281 -0.378906 6.957031 0.09375 5.5625 0.09375 C 4.164062 0.09375 3 -0.382812 2.0625 -1.34375 C 1.132812 -2.3125 0.671875 -3.554688 0.671875 -5.078125 C 0.671875 -6.609375 1.148438 -7.832031 2.109375 -8.75 C 3.078125 -9.675781 4.226562 -10.140625 5.5625 -10.140625 C 6.894531 -10.140625 8.035156 -9.675781 8.984375 -8.75 C 9.941406 -7.832031 10.421875 -6.601562 10.421875 -5.0625 Z M 3.046875 -2.09375 C 3.765625 -1.382812 4.597656 -1.03125 5.546875 -1.03125 C 6.503906 -1.03125 7.335938 -1.382812 8.046875 -2.09375 C 8.753906 -2.8125 9.109375 -3.796875 9.109375 -5.046875 C 9.109375 -6.296875 8.742188 -7.269531 8.015625 -7.96875 C 7.296875 -8.675781 6.472656 -9.03125 5.546875 -9.03125 C 4.628906 -9.03125 3.804688 -8.675781 3.078125 -7.96875 C 2.347656 -7.269531 1.984375 -6.296875 1.984375 -5.046875 C 1.984375 -3.796875 2.335938 -2.8125 3.046875 -2.09375 Z M 3.046875 -2.09375 "/></g></g></g><g fill="#000000" fill-opacity="1"><g transform="translate(183.493508, 221.53062)"><g/></g></g><g fill="#000000" fill-opacity="1"><g transform="translate(189.27306, 221.53062)"><g><path d="M 5.078125 -3.109375 L 0.734375 -3.109375 C 0.597656 -3.109375 0.53125 -3.171875 0.53125 -3.296875 L 0.53125 -4 C 0.53125 -4.125 0.597656 -4.1875 0.734375 -4.1875 L 5.078125 -4.1875 C 5.203125 -4.1875 5.265625 -4.125 5.265625 -4 L 5.265625 -3.296875 C 5.265625 -3.171875 5.203125 -3.109375 5.078125 -3.109375 Z M 5.078125 -3.109375 "/></g></g></g><g fill="#000000" fill-opacity="1"><g transform="translate(196.465832, 221.53062)"><g/></g></g><g fill="#000000" fill-opacity="1"><g transform="translate(202.245384, 221.53062)"><g><path d="M 4.78125 0 L 0.765625 0 C 0.660156 0 0.609375 -0.0546875 0.609375 -0.171875 L 0.609375 -0.875 C 0.609375 -0.988281 0.660156 -1.046875 0.765625 -1.046875 L 1.84375 -1.046875 L 1.84375 -9 L 0.765625 -9 C 0.660156 -9 0.609375 -9.054688 0.609375 -9.171875 L 0.609375 -9.890625 C 0.609375 -9.992188 0.660156 -10.046875 0.765625 -10.046875 L 4.546875 -10.046875 C 6.097656 -10.046875 7.332031 -9.597656 8.25 -8.703125 C 9.164062 -7.816406 9.625 -6.59375 9.625 -5.03125 C 9.625 -3.476562 9.1875 -2.25 8.3125 -1.34375 C 7.445312 -0.445312 6.269531 0 4.78125 0 Z M 3.0625 -1.046875 L 4.453125 -1.046875 C 7.046875 -1.066406 8.34375 -2.390625 8.34375 -5.015625 C 8.34375 -6.273438 8.007812 -7.253906 7.34375 -7.953125 C 6.675781 -8.648438 5.695312 -9 4.40625 -9 L 3.0625 -9 Z M 3.0625 -1.046875 "/></g></g></g><g fill="#000000" fill-opacity="1"><g transform="translate(213.999609, 221.53062)"><g><path d="M 8.28125 0 L 0.859375 0 C 0.734375 0 0.671875 -0.0546875 0.671875 -0.171875 L 0.671875 -0.875 C 0.671875 -0.988281 0.734375 -1.046875 0.859375 -1.046875 L 1.921875 -1.046875 L 1.921875 -9 L 0.859375 -9 C 0.734375 -9 0.671875 -9.054688 0.671875 -9.171875 L 0.671875 -9.890625 C 0.671875 -9.992188 0.734375 -10.046875 0.859375 -10.046875 L 8.28125 -10.046875 C 8.40625 -10.046875 8.46875 -9.992188 8.46875 -9.890625 L 8.46875 -7.625 C 8.46875 -7.507812 8.40625 -7.453125 8.28125 -7.453125 L 7.53125 -7.453125 C 7.414062 -7.453125 7.359375 -7.507812 7.359375 -7.625 L 7.359375 -9 L 3.140625 -9 L 3.140625 -5.53125 L 6.671875 -5.53125 C 6.796875 -5.53125 6.859375 -5.472656 6.859375 -5.359375 L 6.859375 -4.640625 C 6.859375 -4.535156 6.796875 -4.484375 6.671875 -4.484375 L 3.140625 -4.484375 L 3.140625 -1.046875 L 7.34375 -1.046875 L 7.34375 -2.421875 C 7.34375 -2.535156 7.40625 -2.59375 7.53125 -2.59375 L 8.28125 -2.59375 C 8.40625 -2.59375 8.46875 -2.535156 8.46875 -2.421875 L 8.46875 -0.171875 C 8.46875 -0.0546875 8.40625 0 8.28125 0 Z M 8.28125 0 "/></g></g></g><g fill="#000000" fill-opacity="1"><g transform="translate(224.536516, 221.53062)"><g><path d="M 9.375 0 L 8.625 0 C 8.445312 0 8.304688 -0.03125 8.203125 -0.09375 C 8.097656 -0.164062 8 -0.28125 7.90625 -0.4375 L 3.859375 -6.765625 L 3.15625 -7.9375 L 3.140625 -7.9375 L 3.140625 -1.046875 L 4.21875 -1.046875 C 4.332031 -1.046875 4.390625 -0.988281 4.390625 -0.875 L 4.390625 -0.171875 C 4.390625 -0.0546875 4.332031 0 4.21875 0 L 0.859375 0 C 0.734375 0 0.671875 -0.0546875 0.671875 -0.171875 L 0.671875 -0.875 C 0.671875 -0.988281 0.734375 -1.046875 0.859375 -1.046875 L 1.921875 -1.046875 L 1.921875 -9 L 0.859375 -9 C 0.734375 -9 0.671875 -9.054688 0.671875 -9.171875 L 0.671875 -9.890625 C 0.671875 -9.992188 0.734375 -10.046875 0.859375 -10.046875 L 2.8125 -10.046875 C 3.082031 -10.046875 3.320312 -9.890625 3.53125 -9.578125 L 7.515625 -3.328125 L 8.3125 -1.96875 L 8.34375 -1.96875 L 8.34375 -9 L 7.265625 -9 C 7.148438 -9 7.09375 -9.054688 7.09375 -9.171875 L 7.09375 -9.890625 C 7.09375 -9.992188 7.148438 -10.046875 7.265625 -10.046875 L 10.640625 -10.046875 C 10.753906 -10.046875 10.8125 -9.992188 10.8125 -9.890625 L 10.8125 -9.171875 C 10.8125 -9.054688 10.753906 -9 10.640625 -9 L 9.5625 -9 L 9.5625 -0.171875 C 9.5625 -0.0546875 9.5 0 9.375 0 Z M 9.375 0 "/></g></g></g><g fill="#000000" fill-opacity="1"><g transform="translate(237.410111, 221.53062)"><g><path d="M 6.6875 0 L 3.4375 0 C 3.3125 0 3.25 -0.0625 3.25 -0.1875 L 3.25 -0.875 C 3.25 -0.988281 3.3125 -1.046875 3.4375 -1.046875 L 4.5 -1.046875 L 4.5 -9 L 1.84375 -9 L 1.84375 -7.515625 C 1.84375 -7.390625 1.78125 -7.328125 1.65625 -7.328125 L 0.875 -7.328125 C 0.738281 -7.328125 0.671875 -7.390625 0.671875 -7.515625 L 0.671875 -9.875 C 0.671875 -9.988281 0.738281 -10.046875 0.875 -10.046875 L 9.3125 -10.046875 C 9.4375 -10.046875 9.5 -9.988281 9.5 -9.875 L 9.5 -7.515625 C 9.5 -7.390625 9.4375 -7.328125 9.3125 -7.328125 L 8.515625 -7.328125 C 8.390625 -7.328125 8.328125 -7.390625 8.328125 -7.515625 L 8.328125 -9 L 5.71875 -9 L 5.71875 -1.046875 L 6.6875 -1.046875 C 6.820312 -1.046875 6.890625 -0.988281 6.890625 -0.875 L 6.890625 -0.1875 C 6.890625 -0.0625 6.820312 0 6.6875 0 Z M 6.6875 0 "/></g></g></g><g fill="#000000" fill-opacity="1"><g transform="translate(248.982433, 221.53062)"><g><path d="M 4.21875 0 L 0.859375 0 C 0.734375 0 0.671875 -0.0546875 0.671875 -0.171875 L 0.671875 -0.875 C 0.671875 -0.988281 0.734375 -1.046875 0.859375 -1.046875 L 1.921875 -1.046875 L 1.921875 -9 L 0.859375 -9 C 0.734375 -9 0.671875 -9.054688 0.671875 -9.171875 L 0.671875 -9.890625 C 0.671875 -9.992188 0.734375 -10.046875 0.859375 -10.046875 L 4.21875 -10.046875 C 4.332031 -10.046875 4.390625 -9.992188 4.390625 -9.890625 L 4.390625 -9.171875 C 4.390625 -9.054688 4.332031 -9 4.21875 -9 L 3.140625 -9 L 3.140625 -1.046875 L 4.21875 -1.046875 C 4.332031 -1.046875 4.390625 -0.988281 4.390625 -0.875 L 4.390625 -0.171875 C 4.390625 -0.0546875 4.332031 0 4.21875 0 Z M 4.21875 0 "/></g></g></g><g fill="#000000" fill-opacity="1"><g transform="translate(255.447613, 221.53062)"><g><path d="M 1.640625 0 L 0.859375 0 C 0.734375 0 0.671875 -0.0546875 0.671875 -0.171875 L 0.671875 -3.4375 C 0.671875 -3.5625 0.734375 -3.625 0.859375 -3.625 L 1.734375 -3.625 C 1.847656 -3.625 1.90625 -3.5625 1.90625 -3.4375 L 1.90625 -3.15625 C 1.90625 -2.976562 2.007812 -2.738281 2.21875 -2.4375 C 2.4375 -2.144531 2.648438 -1.90625 2.859375 -1.71875 C 3.078125 -1.53125 3.363281 -1.367188 3.71875 -1.234375 C 4.082031 -1.097656 4.476562 -1.03125 4.90625 -1.03125 C 5.625 -1.03125 6.1875 -1.179688 6.59375 -1.484375 C 7 -1.785156 7.203125 -2.203125 7.203125 -2.734375 C 7.203125 -3.035156 7.085938 -3.296875 6.859375 -3.515625 C 6.628906 -3.734375 6.332031 -3.90625 5.96875 -4.03125 C 5.601562 -4.164062 5.195312 -4.289062 4.75 -4.40625 C 4.3125 -4.519531 3.867188 -4.648438 3.421875 -4.796875 C 2.984375 -4.941406 2.582031 -5.113281 2.21875 -5.3125 C 1.851562 -5.507812 1.554688 -5.785156 1.328125 -6.140625 C 1.097656 -6.503906 0.984375 -6.929688 0.984375 -7.421875 C 0.984375 -8.203125 1.28125 -8.847656 1.875 -9.359375 C 2.46875 -9.878906 3.257812 -10.140625 4.25 -10.140625 C 5.507812 -10.140625 6.4375 -9.769531 7.03125 -9.03125 L 7 -9.890625 C 7 -10.003906 7.0625 -10.0625 7.1875 -10.0625 L 7.96875 -10.0625 C 8.082031 -10.0625 8.140625 -10.003906 8.140625 -9.890625 L 8.140625 -6.84375 C 8.140625 -6.726562 8.082031 -6.671875 7.96875 -6.671875 L 7.078125 -6.671875 C 6.972656 -6.671875 6.921875 -6.726562 6.921875 -6.84375 L 6.921875 -7.234375 C 6.921875 -7.617188 6.703125 -8.003906 6.265625 -8.390625 C 5.835938 -8.785156 5.207031 -8.984375 4.375 -8.984375 C 3.757812 -8.984375 3.265625 -8.835938 2.890625 -8.546875 C 2.515625 -8.253906 2.328125 -7.878906 2.328125 -7.421875 C 2.328125 -7.097656 2.441406 -6.816406 2.671875 -6.578125 C 2.910156 -6.347656 3.210938 -6.160156 3.578125 -6.015625 C 3.953125 -5.878906 4.363281 -5.75 4.8125 -5.625 C 5.257812 -5.507812 5.707031 -5.382812 6.15625 -5.25 C 6.601562 -5.113281 7.015625 -4.945312 7.390625 -4.75 C 7.765625 -4.550781 8.066406 -4.28125 8.296875 -3.9375 C 8.535156 -3.601562 8.65625 -3.203125 8.65625 -2.734375 C 8.65625 -1.910156 8.359375 -1.234375 7.765625 -0.703125 C 7.179688 -0.171875 6.304688 0.09375 5.140625 0.09375 C 4.273438 0.09375 3.5625 -0.078125 3 -0.421875 C 2.445312 -0.765625 2.046875 -1.140625 1.796875 -1.546875 L 1.8125 -0.171875 C 1.8125 -0.0546875 1.753906 0 1.640625 0 Z M 1.640625 0 "/></g></g></g><g fill="#000000" fill-opacity="1"><g transform="translate(266.166411, 221.53062)"><g><path d="M 6.6875 0 L 3.4375 0 C 3.3125 0 3.25 -0.0625 3.25 -0.1875 L 3.25 -0.875 C 3.25 -0.988281 3.3125 -1.046875 3.4375 -1.046875 L 4.5 -1.046875 L 4.5 -9 L 1.84375 -9 L 1.84375 -7.515625 C 1.84375 -7.390625 1.78125 -7.328125 1.65625 -7.328125 L 0.875 -7.328125 C 0.738281 -7.328125 0.671875 -7.390625 0.671875 -7.515625 L 0.671875 -9.875 C 0.671875 -9.988281 0.738281 -10.046875 0.875 -10.046875 L 9.3125 -10.046875 C 9.4375 -10.046875 9.5 -9.988281 9.5 -9.875 L 9.5 -7.515625 C 9.5 -7.390625 9.4375 -7.328125 9.3125 -7.328125 L 8.515625 -7.328125 C 8.390625 -7.328125 8.328125 -7.390625 8.328125 -7.515625 L 8.328125 -9 L 5.71875 -9 L 5.71875 -1.046875 L 6.6875 -1.046875 C 6.820312 -1.046875 6.890625 -0.988281 6.890625 -0.875 L 6.890625 -0.1875 C 6.890625 -0.0625 6.820312 0 6.6875 0 Z M 6.6875 0 "/></g></g></g><g fill="#000000" fill-opacity="1"><g transform="translate(277.738745, 221.53062)"><g><path d="M 10.75 0 L 7.59375 0 C 7.476562 0 7.421875 -0.0546875 7.421875 -0.171875 L 7.421875 -0.875 C 7.421875 -0.988281 7.476562 -1.046875 7.59375 -1.046875 L 8.5625 -1.046875 L 7.65625 -3.46875 L 3.75 -3.46875 L 2.84375 -1.046875 L 3.828125 -1.046875 C 3.929688 -1.046875 3.984375 -0.988281 3.984375 -0.875 L 3.984375 -0.171875 C 3.984375 -0.0546875 3.929688 0 3.828125 0 L 0.671875 0 C 0.554688 0 0.5 -0.0546875 0.5 -0.171875 L 0.5 -0.875 C 0.5 -0.988281 0.554688 -1.046875 0.671875 -1.046875 L 1.609375 -1.046875 L 4.625 -9 L 3.859375 -9 C 3.742188 -9 3.6875 -9.054688 3.6875 -9.171875 L 3.6875 -9.890625 C 3.6875 -9.992188 3.742188 -10.046875 3.859375 -10.046875 L 5.765625 -10.046875 C 5.992188 -10.046875 6.164062 -10 6.28125 -9.90625 C 6.394531 -9.8125 6.492188 -9.660156 6.578125 -9.453125 L 9.796875 -1.046875 L 10.75 -1.046875 C 10.863281 -1.046875 10.921875 -0.988281 10.921875 -0.875 L 10.921875 -0.171875 C 10.921875 -0.0546875 10.863281 0 10.75 0 Z M 7.28125 -4.4375 L 5.71875 -8.59375 L 5.6875 -8.59375 L 4.109375 -4.4375 Z M 7.28125 -4.4375 "/></g></g></g></svg>